# Blender3D v249 OBJ File: model.blend
# www.blender3d.org
mtllib model.mtl
v 0.272606 0.053634 0.995831
v 0.225867 0.054094 -0.363617
v -0.230560 0.057932 -0.366168
v -0.292495 0.058387 0.992673
v 0.220210 -0.292381 1.145457
v 0.180432 -0.291971 -0.394737
v -0.190608 -0.288851 -0.396811
v -0.247602 -0.288447 1.142843
v 0.274988 0.053635 0.569695
v -0.010273 0.056010 1.052946
v 0.397301 -0.038635 1.146244
v -0.001972 0.056013 -0.431869
v 0.168899 -0.036615 -0.877915
v -0.290113 0.058387 0.566536
v -0.169381 -0.033771 -0.879806
v -0.420398 -0.031759 1.141673
v 0.180485 -0.451901 0.521180
v -0.014262 -0.315390 1.185577
v -0.004886 -0.290411 -0.431886
v -0.203589 -0.448671 0.519033
v -0.007563 0.056011 0.568115
v -0.011552 -0.450286 0.520107
v 1.057182 -0.044156 0.574066
v 0.000079 -0.035193 -0.936049
v -1.073841 -0.026235 0.562155
v -0.011911 -0.035197 1.208716
v 0.275629 -0.152943 0.599468
v -0.296112 -0.148135 0.596273
vt 0.776557 0.842649
vt 0.917987 0.788796
vt 0.918727 0.855183
vt 0.757490 0.896815
vt 0.306749 0.392352
vt 0.441099 0.386931
vt 0.311022 0.502546
vt 0.520156 0.855418
vt 0.393737 0.788873
vt 0.420644 0.373547
vt 0.306289 0.378596
vt 0.309276 0.128156
vt 0.553108 0.656897
vt 0.980762 0.596752
vt 0.840949 0.671117
vt 0.575706 0.717405
vt 0.173585 0.378596
vt 0.059231 0.373548
vt 0.170598 0.128156
vt 0.394950 0.670925
vt 0.394957 0.596759
vt 0.041359 0.389902
vt 0.175793 0.393443
vt 0.173044 0.503686
vt 0.496949 0.169312
vt 0.496989 0.119189
vt 0.553377 0.170895
vt 0.578550 0.120181
vt 0.746987 0.121996
vt 0.746987 0.155296
vt 0.690669 0.166877
vt 0.665496 0.134774
vt 0.440745 0.170946
vt 0.415573 0.120254
vt 0.828477 0.134774
vt 0.803304 0.166877
vt 0.690669 0.250962
vt 0.534611 0.248400
vt 0.690669 0.435063
vt 0.665496 0.533916
vt 0.746987 0.448279
vt 0.746987 0.545200
vt 0.111031 0.543729
vt 0.111031 0.644216
vt 0.029540 0.555127
vt 0.074054 0.651414
vt 0.803304 0.435063
vt 0.828478 0.533916
vt 0.192522 0.555127
vt 0.148008 0.651414
vt 0.803304 0.250962
vt 0.959362 0.248400
vt 0.149307 0.833960
vt 0.111031 0.833960
vt 0.072755 0.833960
vt 0.167348 0.958337
vt 0.111031 0.978516
vt 0.054714 0.958337
vt 0.746987 0.250962
vn 0.818513 -0.571050 -0.062757
vn 0.951377 -0.307501 0.018036
vn 0.141295 -0.974848 0.172359
vn 0.991080 -0.106596 -0.079991
vn 0.134548 -0.987042 -0.087439
vn 0.955444 -0.290763 -0.050826
vn -0.991456 -0.092201 -0.092267
vn -0.958268 -0.279008 -0.062271
vn -0.150410 -0.984591 -0.089199
vn -0.827390 -0.557295 -0.069631
vn -0.159885 -0.972209 0.171014
vn -0.955066 -0.296265 0.008711
vn -0.188425 -0.079258 0.978884
vn -0.161927 -0.104535 0.981250
vn -0.099969 0.859090 0.501967
vn -0.070016 0.878984 0.471683
vn 0.149168 -0.107151 0.982989
vn 0.175938 -0.082486 0.980939
vn 0.079512 0.877726 0.472519
vn 0.108785 0.857334 0.503134
vn -0.107156 0.985678 0.130220
vn -0.578601 0.815604 -0.003233
vn -0.316084 0.926736 -0.203105
vn -0.107307 0.994199 -0.007337
vn -0.050823 0.982721 -0.177981
vn -0.043667 0.982582 -0.180627
vn -0.155865 -0.880672 -0.447350
vn -0.095791 -0.878448 -0.468137
vn 0.062202 0.981691 -0.180036
vn 0.069329 0.981710 -0.177309
vn 0.086231 -0.879979 -0.467120
vn 0.146023 -0.883211 -0.445663
vn 0.124087 0.992253 -0.006043
vn 0.333875 0.921270 -0.199471
vn 0.592235 0.805758 0.003312
vn 0.122255 0.983748 0.131502
vn -0.007323 -0.985069 -0.172005
vn 0.024856 -0.985914 -0.165398
vn -0.039582 -0.985372 -0.165758
vn 0.129154 -0.971756 0.197509
vn -0.009533 -0.968679 0.248131
vn -0.147814 -0.969418 0.195907
vn 0.008409 0.999965 0.000049
usemtl Material_base.png
s off
f 27/1/1 11/2/1 5/3/1
f 17/4/2 27/1/2 5/3/2
f 27/5/3 23/6/3 11/7/3
f 27/1/4 6/8/4 13/9/4
f 23/10/5 27/11/5 13/12/5
f 27/1/6 17/4/6 6/8/6
f 28/13/7 15/14/7 7/15/7
f 20/16/8 28/13/8 7/15/8
f 28/17/9 25/18/9 15/19/9
f 28/13/10 8/20/10 16/21/10
f 25/22/11 28/23/11 16/24/11
f 28/13/12 20/16/12 8/20/12
f 18/25/13 26/26/13 8/27/13
f 26/26/14 16/28/14 8/27/14
f 26/29/15 10/30/15 4/31/15
f 26/29/16 4/31/16 16/32/16
f 5/33/17 11/34/17 26/26/17
f 5/33/18 26/26/18 18/25/18
f 11/35/19 1/36/19 26/29/19
f 1/36/20 10/30/20 26/29/20
f 14/37/21 25/38/21 16/32/21
f 14/37/22 16/32/22 4/31/22
f 3/39/23 15/40/23 25/38/23
f 3/39/24 25/38/24 14/37/24
f 12/41/25 24/42/25 15/40/25
f 12/41/26 15/40/26 3/39/26
f 24/43/27 19/44/27 15/45/27
f 19/44/28 7/46/28 15/45/28
f 2/47/29 13/48/29 12/41/29
f 13/48/30 24/42/30 12/41/30
f 13/49/31 6/50/31 19/44/31
f 13/49/32 19/44/32 24/43/32
f 9/51/33 23/52/33 2/47/33
f 23/52/34 13/48/34 2/47/34
f 1/36/35 11/35/35 9/51/35
f 11/35/36 23/52/36 9/51/36
f 17/53/37 22/54/37 6/50/37
f 22/54/38 19/44/38 6/50/38
f 22/54/37 20/55/37 7/46/37
f 22/54/39 7/46/39 19/44/39
f 5/56/40 18/57/40 22/54/40
f 5/56/41 22/54/41 17/53/41
f 18/57/42 8/58/42 22/54/42
f 8/58/41 20/55/41 22/54/41
f 10/30/43 21/59/43 4/31/43
f 21/59/43 14/37/43 4/31/43
f 21/59/43 12/41/43 3/39/43
f 21/59/43 3/39/43 14/37/43
f 1/36/43 9/51/43 21/59/43
f 1/36/43 21/59/43 10/30/43
f 9/51/43 2/47/43 21/59/43
f 2/47/43 12/41/43 21/59/43
